	Family.Weekend.2013.HDRip.XVID.AC3.HQ.Hive-CM8


Source: 1080p Web-DL

Video.: 720x304 @bitrate 1700 2pass
Audio.: English AC3 5.1 @384
Subs..: Yes, English in srt/subs
Sample: Yes, included


IMDb..: http://www.imdb.com/title/tt1821426/


ENCODE
quality was great so only sharpen and denoise
got very nice
enjoy


General
Complete name                  : Family.Weekend.2013.HDRip.XVID.AC3.HQ.Hive-CM8.avi
Format                         : AVI
Format/Info                    : Audio Video Interleave
File size                      : 1.54 GiB
Duration                       : 1h 45mn
Overall bit rate               : 2 093 Kbps
Writing application            : Nandub v1.0rc2
Writing library                : Nandub build 1853/release

Video
ID                             : 0
Format                         : MPEG-4 Visual
Format profile                 : Advanced Simple@L5
Format settings, BVOP          : 2
Format settings, QPel          : Yes
Format settings, GMC           : No warppoints
Format settings, Matrix        : Default (H.263)
Muxing mode                    : Packed bitstream
Codec ID                       : XVID
Codec ID/Hint                  : XviD
Duration                       : 1h 45mn
Bit rate                       : 1 700 Kbps
Width                          : 720 pixels
Height                         : 304 pixels
Display aspect ratio           : 2.35:1
Frame rate                     : 23.976 fps
Color space                    : YUV
Chroma subsampling             : 4:2:0
Bit depth                      : 8 bits
Scan type                      : Progressive
Compression mode               : Lossy
Bits/(Pixel*Frame)             : 0.324
Stream size                    : 1.25 GiB (81%)
Writing library                : XviD 1.2.1 (UTC 2008-12-04)

Audio
ID                             : 1
Format                         : AC-3
Format/Info                    : Audio Coding 3
Mode extension                 : CM (complete main)
Format settings, Endianness    : Big
Codec ID                       : 2000
Duration                       : 1h 45mn
Bit rate mode                  : Constant
Bit rate                       : 384 Kbps
Channel(s)                     : 6 channels
Channel positions              : Front: L C R, Side: L R, LFE
Sampling rate                  : 48.0 KHz
Bit depth                      : 16 bits
Compression mode               : Lossy
Stream size                    : 289 MiB (18%)
Alignment                      : Split accross interleaves
Interleave, duration           : 42 ms (1.00 video frame)
Interleave, preload duration   : 500 ms


PLOT
A 16-year-old girl takes her parents hostage after they
miss her big jump-roping competition.


CAST
Kristin Chenoweth  ...    Samantha Smith-Dungy
Matthew Modine     ...    Duncan Dungy
Olesya Rulin       ...    Emily Smith-Dungy

Screens: 
http://i.imgur.com/9lQlLJV.png 
http://i.imgur.com/RDiH97C.png 
http://i.imgur.com/oae7q8s.png 
http://i.imgur.com/CaXd7lp.png 
http://i.imgur.com/c4tYU0Q.png